<svg height="485pt" viewBox="0 0 485 485" width="485pt" xmlns="http://www.w3.org/2000/svg"><path d="m96.367188 242.5c0 80.714844 65.417968 146.136719 146.113281 146.136719 7.761719 0 15.382812-.597657 22.816406-1.78125 13.484375 8.308593 29.363281 13.144531 46.378906 13.144531 48.777344 0 88.324219-39.546875 88.324219-88.316406 0-17.023438-4.820312-32.902344-13.160156-46.386719 1.179687-7.433594 1.792968-15.035156 1.792968-22.796875 0-80.730469-65.417968-146.152344-146.132812-146.152344-7.757812 0-15.382812.632813-22.816406 1.796875-13.464844-8.324219-29.34375-13.144531-46.359375-13.144531-48.777344 0-88.324219 39.527344-88.324219 88.320312 0 17.019532 4.820312 32.878907 13.144531 46.378907-1.148437 7.453125-1.777343 15.027343-1.777343 22.800781zm178.484374 26.132812c-3.898437-3.710937-8.921874-6.527343-15.15625-8.480468-6.257812-2-14.667968-4.097656-25.191406-6.320313-14.136718-3.078125-25.960937-6.664062-35.546875-10.804687-9.589843-4.132813-17.230469-9.789063-22.886719-16.953125-5.671874-7.207031-8.492187-16.179688-8.492187-26.8125 0-10.132813 2.992187-19.207031 8.957031-27.085938 5.980469-7.914062 14.628906-13.976562 25.890625-18.183593 11.226563-4.21875 24.457031-6.324219 39.613281-6.324219 12.097657 0 22.59375 1.386719 31.460938 4.1875 8.835938 2.804687 16.21875 6.511719 22.097656 11.160156 5.863282 4.652344 10.1875 9.539063 12.902344 14.683594 2.734375 5.140625 4.101562 10.183593 4.101562 15.085937 0 4.566406-1.761718 8.71875-5.210937 12.339844-3.453125 3.640625-7.863281 5.484375-13.007813 5.46875-4.648437 0-8.285156-1.058594-10.816406-3.328125-2.460937-2.207031-5.042968-5.691406-7.84375-10.566406-3.539062-6.78125-7.761718-12.078125-12.683594-15.871094-4.796874-3.710937-12.695312-5.644531-23.703124-5.628906-10.183594 0-18.316407 2.089843-24.46875 6.15625-6.1875 4.136719-9.144532 8.921875-9.160157 14.542969.015625 3.523437 1.023438 6.496093 3.058594 9.023437 2.066406 2.5625 4.957031 4.785156 8.648437 6.667969 3.703126 1.890625 7.46875 3.363281 11.242188 4.425781 3.828125 1.078125 10.1875 2.648437 19.003906 4.714844 11.058594 2.394531 21.105469 5.058593 30.128906 7.964843 9.007813 2.921876 16.679688 6.445313 23.039063 10.628907 6.390625 4.1875 11.398437 9.519531 14.96875 15.960937 3.589844 6.445313 5.363281 14.324219 5.363281 23.585938.019532 11.175781-3.089844 21.207031-9.277344 30.097656-6.1875 8.902344-15.261718 15.859375-27.136718 20.847656-11.890625 5.027344-25.941406 7.519532-42.175782 7.519532-19.453124 0-35.546874-3.398438-48.265624-10.289063-9.019532-4.921875-16.355469-11.515625-21.976563-19.753906-5.65625-8.238281-8.507813-16.304688-8.507813-24.183594 0-4.628906 1.777344-8.664063 5.210938-11.960937 3.488281-3.316407 7.960938-4.976563 13.261719-4.976563 4.339843 0 8.050781 1.300781 11.089843 3.898437 3.011719 2.582032 5.539063 6.339844 7.589844 11.296876 2.476563 5.757812 5.175782 10.5625 8.035156 14.390624 2.835938 3.792969 6.832032 6.953126 12.011719 9.429688 5.128907 2.480469 11.945313 3.710938 20.476563 3.710938 11.6875 0 21.121094-2.511719 28.332031-7.503907 7.261719-5.023437 10.75-11.140625 10.75-18.539062-.003906-5.902344-1.882813-10.582031-5.726563-14.222657zm0 0"/><path d="m0 0v485h485v-485zm455 455h-425v-425h425zm0 0"/></svg>