<svg height="485pt" viewBox="0 0 485 485" width="485pt" xmlns="http://www.w3.org/2000/svg"><path d="m242.421875 381.117188c76.417969 0 138.695313-62.277344 138.695313-138.695313s-62.277344-138.539063-138.695313-138.539063-138.539063 62.121094-138.539063 138.539063 62.121094 138.695313 138.539063 138.695313zm0-25.234376c-23.878906 0-46.023437-7.496093-64.230469-20.1875 21.171875-30.019531 50.464844-51.914062 83.539063-63.726562 7.875 25.230469 13.074219 51.4375 15.027343 77.992188-10.964843 3.46875-22.269531 5.921874-34.335937 5.921874zm58.464844-16.726562c-2.457031-25.230469-7.402344-49.957031-14.902344-74.085938 21.894531-4.441406 44.796875-4.316406 67.570313.125-6.425782 31.375-26.113282 57.832032-52.667969 73.960938zm54.746093-99.191406c-26.460937-4.660156-52.921874-4.535156-78.246093 1.101562-3.214844-8.222656-6.644531-16.347656-10.457031-24.347656 22.019531-13.167969 41.578124-30.777344 57.582031-52.164062 18.679687 19.78125 30.492187 46.242187 31.121093 75.410156zm-113.210937-110.851563c23.277344 0 44.792969 6.996094 62.746094 18.933594-13.765625 18.964844-30.617188 34.460937-49.707031 46.273437-12.0625-21.671874-26.457032-41.957031-42.683594-60.796874 9.578125-2.582032 19.3125-4.410157 29.644531-4.410157zm-54.148437 14.398438c17.230468 19.058593 32.128906 39.972656 44.667968 62.246093-31.125 13.417969-66.054687 17.480469-100.644531 11.085938 7.402344-31.753906 28.191406-58.085938 55.976563-73.332031zm-23.972657 101.996093c27.910157 0 55.125-6.140624 80.230469-17.230468 3.183594 6.648437 6.015625 13.167968 8.726562 20.066406-37.042968 13.167969-69.773437 37.390625-93.996093 70.625-18.585938-20.195312-30.144531-46.875-30.144531-76.546875 11.6875 1.605469 23.496093 3.085937 35.183593 3.085937zm0 0"/><path d="m0 0v485h485v-485zm455 455h-425v-425h425zm0 0"/></svg>