<svg height="485pt" viewBox="0 0 485 485" width="485pt" xmlns="http://www.w3.org/2000/svg"><path d="m157.578125 267.179688c4.121094 1.695312 7.902344.0625 9.054687-4.496094.902344-3.21875 2.847657-11.183594 3.761719-14.527344 1.152344-4.558594.734375-6.128906-2.613281-10.144531-7.292969-8.570313-11.960938-19.695313-11.960938-35.5 0-45.6875 34.207032-86.648438 89.074219-86.648438 48.613281 0 75.292969 29.714844 75.292969 69.398438 0 52.144531-23.039062 96.136719-57.371094 96.136719-18.949218 0-33.058594-15.617188-28.546875-34.832032 5.460938-22.898437 15.976563-47.695312 15.976563-64.214844 0-14.839843-7.902344-27.175781-24.375-27.175781-19.382813 0-34.941406 20.003907-34.941406 46.855469 0 17.082031 5.773437 28.625 5.773437 28.625s-19.804687 83.925781-23.273437 98.625c-6.921876 29.230469-1.027344 65.074219-.542969 68.730469.308593 2.128906 3.09375 2.675781 4.324219 1.023437 1.757812-2.300781 24.84375-30.738281 32.683593-59.175781 2.191407-8.089844 12.707031-49.78125 12.707031-49.78125 6.253907 12.042969 24.660157 22.558594 44.226563 22.558594 58.167969 0 97.601563-53 97.601563-123.96875 0-53.65625-45.453126-103.667969-114.554688-103.667969-86.042969 0-129.304688 61.617188-129.304688 113.015625 0 31.175781 11.792969 58.835937 37.007813 69.164063zm0 0"/><path d="m0 0v485h485v-485zm455 455h-425v-425h425zm0 0"/></svg>