<svg height="485pt" viewBox="0 0 485 485" width="485pt" xmlns="http://www.w3.org/2000/svg"><path d="m339.707031 400h60.292969c-.035156-86.835938-35.339844-165.515625-92.367188-222.578125-57.066406-57.0625-135.679687-92.386719-222.496093-92.421875v60.121094c140.375.105468 254.464843 114.382812 254.570312 254.878906zm0 0"/><path d="m232.449219 399.898438c.019531 0 .019531.101562.019531.101562h60.394531c-.050781-57.304688-23.34375-109.1875-60.996093-146.867188-37.664063-37.6875-89.53125-60.980468-146.832032-61.015624v60.140624c39.269532.03125 76.410156 15.449219 104.195313 43.289063 27.789062 27.753906 43.15625 64.941406 43.21875 104.351563zm0 0"/><path d="m126.820312 399.605469c11.566407 0 21.957032-4.628907 29.613282-12.21875 7.585937-7.605469 12.238281-17.925781 12.273437-29.425781-.035156-11.5-4.6875-21.84375-12.308593-29.464844-7.621094-7.585938-18.011719-12.253906-29.578126-12.253906-11.554687 0-21.925781 4.667968-29.546874 12.234374-7.59375 7.609376-12.273438 17.984376-12.273438 29.484376 0 11.503906 4.679688 21.839843 12.273438 29.425781 7.601562 7.574219 17.992187 12.21875 29.546874 12.21875zm0 0"/><path d="m0 0v485h485v-485zm455 455h-425v-425h425zm0 0"/></svg>