<svg height="485pt" viewBox="0 0 485 485" width="485pt" xmlns="http://www.w3.org/2000/svg"><path d="m100.214844 303.585938c.664062 0 1.199218-.523438 1.304687-1.269532l3.527344-27.667968-3.523437-28.289063c-.109376-.753906-.644532-1.273437-1.308594-1.273437-.667969 0-1.222656.535156-1.3125 1.273437 0 .003906-3.09375 28.285156-3.09375 28.285156l3.09375 27.664063c.089844.742187.640625 1.277344 1.3125 1.277344zm0 0"/><path d="m88.566406 293.074219c.636719 0 1.15625-.503907 1.257813-1.226563l2.730469-17.199218-2.730469-17.5c-.101563-.722657-.621094-1.226563-1.257813-1.226563-.65625 0-1.175781.507813-1.261718 1.230469l-2.304688 17.496094 2.304688 17.195312c.085937.722656.605468 1.230469 1.261718 1.230469zm0 0"/><path d="m112.589844 308.535156c.816406 0 1.476562-.648437 1.574218-1.542968l3.339844-32.34375-3.339844-33.5625c-.097656-.898438-.761718-1.546876-1.574218-1.546876-.832032 0-1.496094.648438-1.582032 1.546876 0 0-2.9375 33.5625-2.9375 33.5625l2.9375 32.339843c.082032.898438.75 1.546875 1.582032 1.546875zm0 0"/><path d="m125.066406 309.832031c.960938 0 1.757813-.78125 1.84375-1.8125l3.15625-33.363281-3.15625-34.492188c-.089844-1.03125-.882812-1.808593-1.84375-1.808593-.976562 0-1.773437.78125-1.851562 1.816406l-2.777344 34.484375 2.777344 33.363281c.078125 1.03125.875 1.8125 1.851562 1.8125zm0 0"/><path d="m137.640625 310.382812c1.125 0 2.035156-.898437 2.117187-2.085937l2.96875-33.636719-2.96875-32.003906c-.082031-1.179688-.992187-2.078125-2.117187-2.078125-1.136719 0-2.046875.898437-2.117187 2.089844l-2.621094 31.992187 2.621094 33.636719c.074218 1.1875.980468 2.085937 2.117187 2.085937zm0 0"/><path d="m150.320312 310.660156c1.261719 0 2.308594-1.039062 2.382813-2.359375 0 .011719 2.789063-33.628906 2.789063-33.628906l-2.789063-52.050781c-.074219-1.320313-1.121094-2.355469-2.382813-2.355469-1.269531 0-2.320312 1.035156-2.382812 2.359375 0 .003906-2.464844 52.050781-2.464844 52.050781l2.464844 33.632813c.0625 1.3125 1.113281 2.351562 2.382812 2.351562zm0 0"/><path d="m162.90625 310.898438c1.417969 0 2.582031-1.15625 2.652344-2.628907 0 .015625 2.601562-33.414062 2.601562-33.414062l-2.601562-63.953125c-.070313-1.476563-1.234375-2.628906-2.652344-2.628906-1.429688 0-2.59375 1.15625-2.65625 2.628906 0 .003906-2.304688 63.953125-2.304688 63.953125l2.308594 33.425781c.058594 1.460938 1.222656 2.617188 2.652344 2.617188zm0 0"/><path d="m175.980469 310.652344c1.578125 0 2.859375-1.269532 2.925781-2.894532-.003906.019532 2.417969-33.070312 2.417969-33.070312l-2.417969-69.289062c-.066406-1.628907-1.347656-2.902344-2.925781-2.902344-1.582031 0-2.867188 1.277344-2.921875 2.902344 0 .003906-2.144532 69.289062-2.144532 69.289062l2.144532 33.082031c.054687 1.609375 1.339844 2.882813 2.921875 2.882813zm0 0"/><path d="m188.964844 310.71875c1.734375 0 3.132812-1.390625 3.191406-3.167969l2.238281-32.859375-2.238281-71.625c-.058594-1.78125-1.457031-3.171875-3.191406-3.171875-1.738282 0-3.140625 1.394531-3.191406 3.171875l-1.984376 71.621094 1.984376 32.878906c.050781 1.761719 1.453124 3.152344 3.191406 3.152344zm0 0"/><path d="m202.050781 310.6875c1.890625 0 3.40625-1.515625 3.460938-3.445312 0 .023437 2.050781-32.546876 2.050781-32.546876l-2.050781-69.796874c-.054688-1.929688-1.570313-3.4375-3.460938-3.4375-1.898437 0-3.417969 1.511718-3.460937 3.441406l-1.828125 69.792968 1.828125 32.5625c.042968 1.914063 1.5625 3.429688 3.460937 3.429688zm0 0"/><path d="m215.238281 310.746094c2.042969 0 3.683594-1.628906 3.726563-3.710938 0 .027344 1.867187-32.332031 1.867187-32.332031l-1.867187-67.257813c-.042969-2.078124-1.683594-3.707031-3.726563-3.707031-2.050781 0-3.691406 1.632813-3.730469 3.714844l-1.667968 67.246094 1.667968 32.355469c.039063 2.0625 1.679688 3.691406 3.730469 3.691406zm0 0"/><path d="m224.535156 306.988281c.046875.898438.386719 1.726563.933594 2.378907.734375.878906 1.835938 1.445312 3.058594 1.445312 1.082031 0 2.074218-.445312 2.796875-1.167969.722656-.71875 1.179687-1.714843 1.199219-2.808593l.167968-3.179688 1.519532-28.945312-1.6875-80.03125c-.023438-1.371094-.730469-2.582032-1.789063-3.296876-.632813-.433593-1.394531-.683593-2.207031-.683593-.792969 0-1.53125.238281-2.15625.648437-1.085938.710938-1.820313 1.941406-1.84375 3.335938l-.011719.753906-1.496094 79.246094c0 .046875 1.507813 32.167968 1.507813 32.167968 0 .046876.007812.09375.007812.136719zm0 0"/><path d="m237.488281 306.394531c.027344 2.3125 1.941407 4.21875 4.269531 4.21875 2.316407 0 4.230469-1.910156 4.261719-4.253906 0 .035156 1.898438-31.644531 1.898438-31.644531s-1.898438-87.285156-1.898438-87.285156c-.023437-1.542969-.863281-2.894532-2.09375-3.636719-.636719-.386719-1.378906-.613281-2.167969-.613281-1.019531 0-1.957031.367187-2.695312.972656-.945312.78125-1.558594 1.964844-1.574219 3.28125l-.011719.441406-1.738281 86.839844.886719 16.054687zm0 0"/><path d="m253.859375 310.703125c.101563.011719 107.398437 0 107.398437 0 21.398438 0 38.742188-17.152344 38.742188-38.554687 0-21.402344-17.34375-38.746094-38.742188-38.746094-5.308593 0-10.375 1.074218-14.984374 3.007812-3.085938-34.917968-32.367188-62.308594-68.082032-62.308594-8.742187 0-17.261718 1.71875-24.789062 4.628907-2.921875 1.132812-3.699219 2.296875-3.726563 4.558593v122.96875c.027344 2.371094 1.871094 4.214844 4.183594 4.445313zm0 0"/><path d="m0 0v485h485v-485zm455 455h-425v-425h425zm0 0"/></svg>