<svg height="485pt" viewBox="0 0 485 485" width="485pt" xmlns="http://www.w3.org/2000/svg"><path d="m256.40625 127.652344c40.050781 8.277344 70.78125 56.539062 70.78125 114.847656s-30.734375 106.574219-70.785156 114.847656c14.117187 6.988282 29.519531 10.726563 45.320312 10.726563 18.378906 0 36.441406-5.058594 52.566406-14.652344 28.246094-28.464844 45.710938-67.652344 45.710938-110.921875s-17.464844-82.453125-45.707031-110.914062c-16.121094-9.59375-34.183594-14.65625-52.570313-14.65625-15.796875.003906-31.199218 3.734374-45.316406 10.722656zm0 0"/><path d="m234.996094 399.816406c2.492187.117188 4.988281.183594 7.503906.183594 40.324219 0 77.097656-15.164062 104.964844-40.082031-18.464844 12.246093-40.046875 19.289062-63.117188 19.289062-37.507812 0-71.09375-18.605469-93.6875-47.949219-17.414062-20.558593-28.695312-50.945312-29.460937-85.046874 0-.085938 0-7.332032 0-7.417969.765625-34.101563 12.046875-64.492188 29.457031-85.046875 22.597656-29.34375 56.1875-47.949219 93.691406-47.949219 23.074219 0 44.664063 7.046875 63.128906 19.296875-27.730468-24.804688-64.285156-39.9375-104.378906-40.085938-.203125 0-.398437-.007812-.597656-.007812-86.984375 0-157.5 70.511719-157.5 157.5 0 84.46875 66.496094 153.402344 149.996094 157.316406zm0 0"/><path d="m0 0v485h485v-485zm455 455h-425v-425h425zm0 0"/></svg>