<svg height="485pt" viewBox="0 0 485 485" width="485pt" xmlns="http://www.w3.org/2000/svg"><path d="m127.511719 335.988281 1.050781-.1875c.121094-.023437 11.953125-2.1875 26.945312-2.1875 12.464844 0 23.464844 1.453125 32.671876 4.3125 14.769531 4.585938 32.429687 17.328125 49.507812 29.664063 13.839844 9.988281 26.90625 19.414062 37.945312 24.246094 12.734376 5.574218 23.054688 8.164062 32.492188 8.164062 11.679688 0 22.160156-3.898438 32.96875-12.304688 20.878906-16.195312 16.917969-54.179687 16.738281-55.796874l-.210937-1.855469-1.453125 1.175781c-.148438.121094-15.726563 12.414062-40.351563 12.414062-15.074218 0-34.328125-11.824218-52.9375-23.265624-12.257812-7.519532-23.828125-14.632813-33.96875-18.289063-20.203125-7.3125-33.972656-8.886719-39.117187-9.21875 7.402343-8.222656 41.65625-46.238281 72.523437-80.382813 11.269532-12.464843 22.273438-23.988281 31.96875-34.15625 20.394532-21.371093 36.503906-38.238281 41.574219-49.660156 7.390625-16.636718 8.105469-34.726562 8.105469-34.90625l.046875-1.304687-1.28125.261719c-.441407.089843-44.894531 9.097656-80.96875 9.097656-9.105469 0-16.996094-.574219-23.464844-1.707032-36.222656-6.335937-48.175781-14.539062-48.292969-14.621093l-.671875-.480469-.609375.5625c-.28125.25-27.53125 25.75-17.21875 51.996094 4.3125 10.96875 19.410156 16.535156 44.875 16.535156 15.5 0 30.613282-2.167969 36.550782-3.121094-10.449219 13.265625-67.667969 85.609375-87.34375 104.464844-21.851563 20.914062-32.28125 32.898438-36.363282 48.570312-4.007812 15.433594-1.953125 30.296876-1.863281 30.929688zm0 0"/><path d="m0 0v485h485v-485zm455 455h-425v-425h425zm0 0"/></svg>