<svg height="495pt" viewBox="0 0 495 495" width="495pt" xmlns="http://www.w3.org/2000/svg"><path d="m0 0v495h495v-495zm455 455h-415v-415h415zm0 0"/><path d="m175.800781 168.601562c25.097657 0 41.199219 10.796876 50.199219 19.699219l34.101562-32.300781c-21.5-21.5-50.203124-34.101562-84.300781-34.101562-69.902343 0-125.5 55.601562-125.5 125.5 0 69.902343 55.5 125.601562 125.5 125.601562 71.699219 0 120.199219-50.199219 120.199219-121.898438 0-9 0-14.300781-1.800781-21.5h-118.398438v43h71.699219c-3.601562 17.898438-21.5 53.796876-71.699219 53.796876-43 0-77.101562-35.898438-77.101562-78.898438s34-78.898438 77.101562-78.898438zm0 0"/><path d="m373 301.300781h35.898438v-35.902343h35.902343v-35.796876h-35.902343v-35.902343h-35.898438v35.902343h-35.800781v35.796876h35.800781zm0 0"/></svg>