<svg height="485pt" viewBox="0 0 485 485" width="485pt" xmlns="http://www.w3.org/2000/svg"><path d="m124.554688 187.710938c10.765624 0 20.871093 15.714843 30.316406 47.222656l12.769531 43.464844 12.976563 43.542968c12.335937 31.734375 27.75 47.582032 46.277343 47.582032 29.808594-.132813 66.039063-26.105469 108.765625-77.917969 41.464844-49.511719 62.863282-88.535157 64.1875-117.25.074219-2.359375.148438-4.722657.148438-6.929688-.148438-33.871093-15.355469-51.136719-45.824219-51.949219h-3.550781c-42.125.152344-70.609375 23.027344-85.363282 68.703126 8.257813-3.023438 15.945313-4.574219 23.179688-4.574219 14.296875 0 21.457031 6.480469 21.457031 19.550781 0 1.703125-.152343 3.457031-.359375 5.460938-.960937 9.597656-7.96875 24.347656-21.097656 44.277343-13.375 19.398438-23.253906 29.144531-29.753906 29.144531-8.328125-.148437-16.148438-15.128906-23.382813-44.863281-1.324219-4.511719-2.949219-12.332031-4.875-23.535156-1.984375-11.21875-4.496093-25.839844-7.519531-43.765625-5.304688-31.507812-19.039062-47.226562-40.875-47.226562-1.472656 0-2.890625.078124-4.363281.230468-10.617188 1.246094-26.179688 10.179688-46.617188 26.554688l-22.820312 19.042968-23.230469 19.25 14.980469 17.71875c14.015625-9.144531 22.210937-13.734374 24.574219-13.734374zm0 0"/><path d="m0 0v485h485v-485zm455 455h-425v-425h425zm0 0"/></svg>