<svg height="485pt" viewBox="0 0 485 485" width="485pt" xmlns="http://www.w3.org/2000/svg"><path d="m115.609375 281.078125c.125 6.304687 2.574219 12.570313 7.371094 17.367187l82.808593 82.804688c4.773438 4.773438 11.121094 7.402344 17.871094 7.402344s13.09375-2.628906 17.859375-7.402344l82.808594-82.800781c4.777344-4.773438 7.40625-11.121094 7.40625-17.871094s-2.628906-13.09375-7.402344-17.863281l-9.527343-9.527344 85.195312-71.890625v-84.949219h-39.070312l-85.535157 117.421875-33.875-33.871093c-4.765625-4.769532-11.113281-7.398438-17.859375-7.398438-6.75 0-13.09375 2.628906-17.867187 7.398438l-15.378907 15.378906c-.863281-1.175782-1.761718-2.335938-2.722656-3.464844-20.949218-24.484375-57.789062-27.363281-82.269531-6.40625-24.492187 20.953125-27.359375 57.78125-6.410156 82.273438 4.808593 5.621093 10.457031 10.085937 16.597656 13.398437zm82.875-70.425781 19.03125-19.027344c1.640625-1.640625 3.824219-2.542969 6.144531-2.542969 2.316406 0 4.496094.902344 6.136719 2.539063l35.710937 35.71875-38.820312 53.285156c-3.828125 4.273438-7.207031 2.027344-8.539062.441406-.457032-.542968-9.5625-12.464844-21.339844-27.910156 5.847656-13.382812 6.480468-28.613281 1.675781-42.503906zm-34.378906 73.636718 54.988281 44.226563s3.003906 2.792969 6.324219.097656l76.667969-64.695312 10.519531 10.523437c1.644531 1.640625 2.546875 3.820313 2.546875 6.140625 0 2.316407-.902344 4.496094-2.546875 6.140625l-82.8125 82.804688c-1.636719 1.640625-3.816407 2.542968-6.132813 2.542968-2.320312 0-4.5-.902343-6.140625-2.546874l-81.96875-81.957032c9.542969 1.28125 19.375.214844 28.554688-3.277344zm0 0"/><path d="m0 0v485h485v-485zm455 455h-425v-425h425zm0 0"/></svg>