<svg height="485pt" viewBox="0 0 485 485" width="485pt" xmlns="http://www.w3.org/2000/svg"><path d="m155.40625 363.871094c38.890625 0 70.421875-31.519532 70.421875-70.410156v-101.925782c0-9.210937 7.472656-16.660156 16.683594-16.660156 9.210937 0 16.660156 7.449219 16.660156 16.660156v20.390625l24.175781 10.183594 29.570313-10.183594v-20.390625c0-38.890625-31.519531-70.40625-70.40625-70.40625-38.890625 0-70.425781 31.515625-70.425781 70.40625v100.070313c0 9.214843-7.46875 16.679687-16.679688 16.679687s-16.664062-7.464844-16.664062-16.679687v-44.46875h-53.742188v46.324219c0 38.890624 31.515625 70.410156 70.40625 70.410156zm0 0"/><path d="m312.917969 248.0625-29.570313 10.183594-24.175781-10.183594v45.398438c0 38.886718 31.53125 70.410156 70.421875 70.410156s70.40625-31.523438 70.40625-70.410156v-44.46875h-53.726562v44.46875c0 9.195312-7.46875 16.660156-16.679688 16.660156s-16.675781-7.464844-16.675781-16.660156zm0 0"/><path d="m0 0v485h485v-485zm455 455h-425v-425h425zm0 0"/></svg>