<svg height="485pt" viewBox="0 0 485 485" width="485pt" xmlns="http://www.w3.org/2000/svg"><path d="m126.304688 281.507812c33.960937 0 36.15625-22.371093 36.15625-22.371093h-16.46875s-3.527344 12.050781-20.679688 12.050781c-14 0-24.046875-9.441406-24.046875-22.683594h62.882813v18.730469c0 4.980469-.34375 11.980469-.34375 11.980469h15.710937s.542969-5.015625.542969-9.644532c0 0 7.757812 12.148438 28.851562 12.148438 17.976563 0 31.292969-10.125 35.71875-25.699219-.105468.828125-.140625 1.679688-.140625 2.539063 0 15.132812 12.628907 23.359375 29.746094 23.359375 23.289063 0 30.808594-12.863281 30.808594-12.863281 0 5.109374.378906 10.160156.378906 10.160156h14.78125s-.582031-6.246094-.582031-10.257813v-34.585937c0-4.628906-.753906-8.476563-2.125-11.734375l29.984375 56.261719-14.070313 26.722656h17.777344l48.8125-95.8125h-16.941406l-26.792969 53.792968-26.867187-53.792968h-18.734376l4.804688 8.957031c-6.339844-9.429687-18.828125-11.835937-30.253906-11.835937-33.417969 0-35.578125 18.285156-35.578125 21.234374h16.640625s.851562-10.703124 17.769531-10.703124c11.011719 0 19.519531 5.046874 19.519531 14.683593v3.46875h-19.519531c-21.617187 0-34.71875 5.277344-38.460937 15.984375.378906-2.363281.589843-4.839844.589843-7.378906 0-20.550781-13.867187-37.078125-37.230469-37.078125-21.921874 0-28.746093 11.828125-28.746093 11.828125v-39.589844h-16.050781v60.246094c-.246094-13.101562-8.714844-32.695312-38.425782-32.695312-22.234375 0-40.722656 9.394531-40.722656 37.878906 0 22.496094 12.453125 36.699218 41.304688 36.699218zm177.265624-35.542968v4.566406c0 6.007812-3.707031 20.859375-25.425781 20.859375-11.933593 0-17.011719-5.9375-17.011719-12.796875 0-12.558594 17.1875-12.628906 42.4375-12.628906zm-98.671874-27.953125c15.0625 0 24.667968 11.179687 24.667968 26.207031 0 16.125-11.082031 26.652344-24.5625 26.652344-16.089844 0-24.769531-12.585938-24.769531-26.511719.003906-12.972656 7.785156-26.347656 24.664063-26.347656zm-79.726563-.449219c13.3125 0 22.367187 8.132812 22.367187 20.339844h-45.894531c0-12.964844 11.828125-20.339844 23.527344-20.339844zm0 0"/><path d="m0 0v485h485v-485zm455 455h-425v-425h425zm0 0"/></svg>