<svg height="485pt" viewBox="0 0 485 485" width="485pt" xmlns="http://www.w3.org/2000/svg"><path d="m181.867188 387.8125c28.910156 14.085938 59.921874 14.085938 90.765624 9.34375 70.75-10.851562 120.007813-83.414062 105.125-153.457031-12.738281-59.808594-58.859374-104.398438-134.460937-104.398438-1.207031 0-41.414063.175781-42.625.285157-14.761719 1.320312-24.230469 12.535156-23.351563 26.605468.839844 13.4375 11.949219 23.238282 26.289063 23.425782 9.109375.105468 49.304687-.144532 58.316406 1.027343 32.4375 4.261719 58.914063 28.953125 66.171875 61.015625 7.246094 32.015625-6.082031 65.542969-33.230468 83.835938-22.488282 15.15625-47.679688 16.390625-72.941407 12.28125-40.6875-6.660156-67.097656-39.429688-67.097656-80.75 0-52.152344-.023437-104.304688.019531-156.457032.023438-8.269531-2.707031-15.21875-9.40625-20.132812-8.335937-6.109375-17.464844-7.222656-26.785156-2.5625-9.328125 4.660156-13.898438 12.535156-13.898438 22.972656-.023437 27.921875 0 55.84375-.023437 83.769532 0 24.585937-.398437 49.167968.101563 73.730468 1.132812 55.515625 27.445312 95.300782 77.03125 119.464844zm0 0"/><path d="m0 0v485h485v-485zm455 455h-425v-425h425zm0 0"/></svg>