<svg height="485pt" viewBox="0 0 485 485" width="485pt" xmlns="http://www.w3.org/2000/svg"><path d="m183.4375 388.539062c18.242188 7.382813 38.171875 11.460938 59.0625 11.460938 58.292969 0 109.1875-31.675781 136.421875-78.753906h-195.484375zm0 0"/><path d="m163.746094 378.921875v-139.578125l-65.785156 65.789062c13.484374 31.078126 36.691406 56.957032 65.785156 73.789063zm0 0"/><path d="m400 242.5c0-58.296875-31.675781-109.191406-78.753906-136.425781v195.488281h67.292968c7.382813-18.242188 11.460938-38.175781 11.460938-59.0625zm0 0"/><path d="m216.125 153.90625-49.46875-49.46875c-48.671875 26.796875-81.65625 78.574219-81.65625 138.0625 0 13.078125 1.605469 25.773438 4.609375 37.921875zm0 0"/><path d="m301.5625 96.460938c-18.242188-7.382813-38.175781-11.460938-59.0625-11.460938-18.617188 0-36.472656 3.238281-53.050781 9.167969l112.113281 112.113281zm0 0"/><path d="m0 0v485h485v-485zm455 455h-425v-425h425zm0 0"/></svg>