<svg height="485pt" viewBox="0 0 485 485" width="485pt" xmlns="http://www.w3.org/2000/svg"><path d="m109.609375 178.640625c.039063 4.613281.246094 12.621094.96875 22.667969 1.289063 17.914062 2.527344 31.246094 14.304687 64.105468 11.785157 32.859376 26.355469 35.347657 43.710938 39.058594 17.363281 3.726563 57.199219 7.519532 63.707031-1.082031 4.941407-6.527344 9.75-21.363281 11.777344-28.132813.335937-1.136718 1.890625-1.238281 2.382813-.164062 2.464843 5.53125 8.183593 16.492188 16.53125 21.09375 11.386718 6.269531 35.804687 5.578125 47.429687 7.90625 11.617187 2.324219 14.109375 10.609375 14.109375 10.609375s2.78125 26.355469-4.660156 40.921875c-7.4375 14.570312-24.171875 12.09375-30.691406 12.09375-6.503907 0-20.140626 2.167969-20.140626-13.023438 0-11.980468 13.492188-12.195312 19.199219-11.753906 1.402344.113282 2.640625-.898437 2.792969-2.292968l1.882812-15.9375c.175782-1.464844-.898437-2.78125-2.359374-2.90625-1.75-.144532-4.523438-.277344-8.808594-.277344-9.300782 0-39.972656 1.238281-39.972656 30.691406s16.410156 40.296875 16.410156 40.296875c6.507812 6.824219 56.113281 12.707031 78.742187 0 22.632813-12.707031 35.644531-58.589844 37.8125-101.054687 2.175781-42.476563-1.542969-118.113282-2.476562-132.996094-.929688-14.875-5.574219-30.375-17.054688-35.335938-11.46875-4.960937-83.386719-9.300781-83.386719-9.300781s-1.238281-6.195313-10.230468-17.359375c-8.988282-11.164062-25.410156-11.46875-25.410156-11.46875h-35.050782c-2.382812 0-4.328125 1.933594-4.328125 4.328125v80.777344c0 2.304687-1.859375 4.175781-4.171875 4.175781h-78.695312c-2.402344 0-4.355469 1.945312-4.324219 4.359375zm181.601563 55.179687c1.726562-9.746093 10.25-17.152343 20.488281-17.152343 10.25 0 18.753906 7.40625 20.492187 17.152343.335938 1.894532-1.074218 3.652344-2.996094 3.652344h-34.992187c-1.921875.003906-3.332031-1.757812-2.992187-3.652344zm0 0"/><path d="m181.84375 85-72.257812 73.074219h72.257812zm0 0"/><path d="m0 0v485h485v-485zm455 455h-425v-425h425zm0 0"/></svg>