<svg height="485pt" viewBox="0 0 485 485" width="485pt" xmlns="http://www.w3.org/2000/svg"><path d="m359.15625 300.953125 18.882812 1.523437 21.960938-85.210937c-3.675781-.117187-37.015625-3.28125-41.355469-4.132813zm0 0"/><path d="m355.910156 314.625.097656 20.78125 9.574219.835938 10.304688.753906 3.007812-20.351563-10.855469-.53125zm0 0"/><path d="m207.140625 265.320312c1.023437 7.214844 1.980469 49.9375-1.039063 53.152344-6.070312 6.472656-33.789062 4.75-40.488281 5.246094l-2.308593 13.226562c12.207031.34375 51.9375-1.007812 64.3125-1.007812 24.316406 0 66.9375-.117188 72.972656.339844l.734375-13.894532c-6.152344-1.023437-39.699219-.117187-44.347657-1.15625-1.027343-6.734374-2.15625-51.683593-1.128906-56.3125 4.648438-13.417968 75.175782-68.105468 82.886719-70.1875 1.746094-.359374 4.339844-.941406 7.277344-1.59375h22.714843l3.535157-5.246093c.070312-.015625.207031-.035157.292969-.035157l8.78125-12.765624c-.132813 0-.324219-.015626-.421876-.015626l.90625-1.382812h-123.121093l4.734375 19.445312h33.617187l-56.550781 51.234376c-11.535156-15.992188-38.585938-49.300782-57.457031-76.902344h42.335937v-14.78125l.476563-3.300782c-.121094-.015624-.359375-.03125-.476563-.03125v-1.351562h-140.378906v19.464844h41.632812c16.148438 12.683594 77.945313 90.132812 80.507813 97.855468zm0 0"/><path d="m0 0v485h485v-485zm455 455h-425v-425h425zm0 0"/></svg>