<svg height="485pt" viewBox="0 0 485 485" width="485pt" xmlns="http://www.w3.org/2000/svg"><path d="m189.921875 272.5625h57.816406c55.320313 0 101.566407-34.113281 113.972657-92.097656 14.011718-65.644532-33.070313-95.464844-73.503907-95.464844h-137.929687l-61.117188 280.511719h80.9375zm95.789063-92.082031c-4.820313 20.816406-24.609376 37.425781-44.761719 38.214843l9.488281-42.078124h35.921875c-.207031 1.28125-.289063 2.53125-.648437 3.863281zm-66.886719-38.363281h39.628906c13.605469 0 23.890625 8.097656 27.277344 19.992187-1.726563-.304687-3.335938-.816406-5.234375-.816406h-39.644532l-12.988281 57.554687h-26.386719zm0 0"/><path d="m383.738281 199.636719c-12.390625 57.988281-58.648437 92.082031-113.953125 92.082031h-57.835937l-19.804688 92.953125h-68l-3.367187 15.328125h80.941406l19.820312-92.933594h57.816407c55.300781 0 101.578125-34.113281 113.96875-92.097656 6.53125-30.554688-.269531-53.253906-13.378907-68.90625 6.285157 14.117188 8.445313 31.835938 3.792969 53.574219zm0 0"/><path d="m0 0v485h485v-485zm455 455h-425v-425h425zm0 0"/></svg>