<svg height="485pt" viewBox="0 0 485 485" width="485pt" xmlns="http://www.w3.org/2000/svg"><path d="m242.460938 281.183594-60.921876 46.792968-35.433593-20.761718v22.65625l96.355469 63.769531 96.660156-63.300781v-22.714844l-34.359375 20.414062zm0 0"/><path d="m400 150.148438-92.996094-58.789063-64.542968 53.0625 96.542968 56.078125zm0 0"/><path d="m180.644531 308.398438 61.816407-47.445313-91.554688-58.273437-65.90625 49.640624zm0 0"/><path d="m180.644531 91.359375-95.644531 61.695313 65.90625 49.625 91.554688-58.257813zm0 0"/><path d="m305.578125 308.398438 94.421875-56.078126-60.996094-51.820312-96.542968 60.453125zm0 0"/><path d="m0 0v485h485v-485zm455 455h-425v-425h425zm0 0"/></svg>