<svg height="485pt" viewBox="0 0 485 485" width="485pt" xmlns="http://www.w3.org/2000/svg"><path d="m140.9375 294.058594c12.289062 0 23.621094-4.007813 32.851562-10.722656l114.566407 55.296874c-.121094 1.484376-.234375 2.96875-.234375 4.484376 0 30.902343 25.050781 55.941406 55.941406 55.941406 30.886719 0 55.9375-25.039063 55.9375-55.941406 0-30.886719-25.050781-55.925782-55.9375-55.925782-13.9375 0-26.648438 5.117188-36.441406 13.550782l-111.5-53.824219c.457031-2.867188.753906-5.792969.753906-8.792969 0-.332031-.042969-.65625-.054688-.976562l108.960938-54.550782c10.003906 9.414063 23.453125 15.21875 38.28125 15.21875 30.886719 0 55.925781-25.046875 55.925781-55.9375 0-30.886718-25.039062-55.9375-55.925781-55.9375-30.902344 0-55.941406 25.050782-55.941406 55.9375 0 .679688.078125 1.320313.101562 1.984375l-108.285156 54.210938c-10.070312-9.816407-23.824219-15.878907-39-15.878907-30.886719 0-55.9375 25.039063-55.9375 55.929688 0 30.894531 25.050781 55.933594 55.9375 55.933594zm0 0"/><path d="m0 0v485h485v-485zm455 455h-425v-425h425zm0 0"/></svg>