<svg height="485pt" viewBox="0 0 485 485" width="485pt" xmlns="http://www.w3.org/2000/svg"><path d="m242.5 400.003906c86.988281 0 157.5-70.523437 157.5-157.507812 0-86.988282-70.511719-157.5-157.5-157.5s-157.5 70.511718-157.5 157.5c0 86.984375 70.511719 157.507812 157.5 157.507812zm-124.589844-148.4375c-.214844-2.992187-.328125-6.015625-.328125-9.070312 0-69.242188 56.121094-125.367188 125.363281-125.367188 63.898438 0 116.617188 47.832032 124.347657 109.648438 1.472656 11.78125-.484375 23.917968-6.457031 34.179687-6.535157 11.230469-16.007813 17.816407-26.960938 17.816407-22.03125 0-19.742188-29.847657-56.933594-72.097657-37.195312-42.242187-87.25-44.996093-87.25-44.996093s3.671875 14.234374 3.671875 52.347656c0 38.109375-28.46875 67.042968-50.042969 67.042968-5.136718 0-9.734374-2.183593-13.742187-5.519531-7.101563-5.898437-10.984375-14.78125-11.667969-23.984375zm0 0"/><path d="m0 0v485h485v-485zm455 455h-425v-425h425zm0 0"/></svg>