<svg height="485pt" viewBox="0 0 485 485" width="485pt" xmlns="http://www.w3.org/2000/svg"><path d="m400 186.507812h-83.996094v111.984376h56.003906v24.511718h-56.003906v31.496094h83.996094zm-27.992188 83.996094h-24.507812v-56.007812h24.507812zm0 0"/><path d="m308.996094 186.507812h-83.996094v111.984376h52.5v24.511718h-52.5v31.496094h83.996094zm-31.496094 83.996094h-21.003906v-56.007812h21.003906zm0 0"/><path d="m179.507812 130.503906h31.496094v31.492188h-31.496094zm0 0"/><path d="m179.507812 186.507812h31.496094v111.984376h-31.496094zm0 0"/><path d="m172.5 130.503906h-31.496094v56.003906h-56.003906v111.984376h87.5zm-31.496094 140h-24.507812v-56.007812h24.507812zm0 0"/><path d="m0 0v485h485v-485zm455 455h-425v-425h425zm0 0"/></svg>