<svg height="485pt" viewBox="0 0 485 485" width="485pt" xmlns="http://www.w3.org/2000/svg"><path d="m169.578125 338.625 73.042969.183594v61.191406h146.207031s0-112.667969 0-129.824219c0-22.101562-22.527344-64.640625-67.859375-64.640625-31.28125 0-44.03125 9.886719-54.15625 17.511719-9.472656-16.382813-29.070312-29.484375-46.597656-29.484375-17.445313 0-30.441406 5.828125-41.453125 16.382812-2.332031-8.039062-10.3125-28.964843-40.039063-28.964843-36.816406 0-42.550781 35.628906-42.550781 40.402343v80.792969h73.40625zm0 0"/><path d="m315.601562 178.066406c25.683594 0 46.535157-20.847656 46.535157-46.53125 0-25.671875-20.851563-46.535156-46.535157-46.535156-25.667968 0-46.53125 20.863281-46.53125 46.535156 0 25.683594 20.863282 46.53125 46.53125 46.53125zm0 0"/><path d="m218.019531 165.851562c18.945313 0 34.316407-15.375 34.316407-34.316406 0-18.945312-15.371094-34.316406-34.316407-34.316406-18.941406 0-34.316406 15.371094-34.316406 34.316406 0 18.941406 15.375 34.316406 34.316406 34.316406zm0 0"/><path d="m138.726562 165.851562c15.539063 0 28.167969-12.628906 28.167969-28.171874 0-15.617188-12.628906-28.246094-28.167969-28.246094-15.621093 0-28.25 12.628906-28.25 28.246094 0 15.542968 12.628907 28.171874 28.25 28.171874zm0 0"/><path d="m0 0v485h485v-485zm455 455h-425v-425h425zm0 0"/></svg>