<svg height="485pt" viewBox="0 0 485 485" width="485pt" xmlns="http://www.w3.org/2000/svg"><path d="m137.625 323.1875-19.675781 56.667969 78.796875-30.304688c14.480468 3.476563 29.839844 5.363281 45.746094 5.363281 86.984374 0 157.507812-55.914062 157.507812-124.878906 0-68.976562-70.523438-124.890625-157.507812-124.890625-86.980469 0-157.492188 55.914063-157.492188 124.890625 0 37.03125 20.335938 70.28125 52.625 93.152344zm104.867188-152.449219c52.136718 0 94.410156 26.546875 94.410156 59.296875 0 32.738282-42.273438 59.289063-94.410156 59.289063-52.132813 0-94.40625-26.546875-94.40625-59.289063 0-32.75 42.273437-59.296875 94.40625-59.296875zm0 0"/><path d="m0 0v485h485v-485zm455 455h-425v-425h425zm0 0"/></svg>