<svg height="485pt" viewBox="0 0 485 485" width="485pt" xmlns="http://www.w3.org/2000/svg"><path d="m312.867188 237.242188 10.601562 44.863281 10.875 50.585937-50.574219-10.875-44.886719-10.558594-121.136718-121.132812c-8.9375 19.003906-13.964844 40.207031-13.964844 62.597656 0 81.335938 65.941406 147.277344 147.289062 147.277344 81.335938 0 147.277344-65.941406 147.277344-147.277344 0-81.335937-65.941406-147.277344-147.277344-147.277344-20.609374 0-40.226562 4.25-58.042968 11.894532l119.828125 119.816406s.054687.0625.011719.085938zm0 0"/><path d="m315.222656 279.140625-7.898437-34.675781c-27.183594 12.484375-48.722657 34.023437-61.195313 61.210937l34.671875 7.894531c7.363281-14.722656 19.710938-27.066406 34.421875-34.429687zm0 0"/><path d="m193.027344 117.339844-32.335938-32.339844c-30.089844 18.605469-55.4375 43.949219-74.039062 74.039062l31.09375 31.089844c15.304687-32.542968 42.15625-58.570312 75.28125-72.789062zm0 0"/><path d="m0 0v485h485v-485zm455 455h-425v-425h425zm0 0"/></svg>