<svg height="485pt" viewBox="0 0 485 485" width="485pt" xmlns="http://www.w3.org/2000/svg"><path d="m235.191406 312.800781v-94.753906c2.421875-.152344 4.847656-.265625 7.308594-.265625 46.046875 0 85.460938 26.582031 101.859375 64.292969h-57.953125v-35.378907l-36.773438-7.449218v73.550781h149.714844c.40625-3.023437.652344-6.074219.652344-9.171875 0-57.070312-70.507812-103.34375-157.5-103.34375-2.453125 0-4.882812.039062-7.308594.113281v-28.195312l-36.777344 7.449219v24.765624c-65.519531 12.511719-113.414062 52.183594-113.414062 99.222657 0 3.085937.246094 6.148437.652344 9.164062zm-36.777344-86.304687v55.578125h-57.773437c7.683594-29.214844 28.167969-49.257813 57.773437-55.578125zm0 0"/><path d="m0 0v485h485v-485zm455 455h-425v-425h425zm0 0"/></svg>