<svg height="485pt" viewBox="0 0 485 485" width="485pt" xmlns="http://www.w3.org/2000/svg"><path d="m180.429688 304.195312c36.332031 36.332032 80.710937 64.550782 132.199218 85.523438 35.75 14.5625 65.941406-.644531 78.289063-37.359375 2.214843-6.589844 2.367187-13.042969-.015625-19.519531-5.757813-15.65625-60.332032-55.304688-76.660156-56.195313-12.523438-.679687-19.304688 7.828125-25.039063 16.277344-10.835937 15.949219-24.574219 16.039063-39.898437 9.222656-15.417969-6.863281-28.910157-15.664062-40.035157-26.789062-11.128906-11.128907-19.929687-24.621094-26.789062-40.039063-6.820313-15.324218-6.730469-29.058594 9.222656-39.898437 8.445313-5.730469 16.957031-12.511719 16.273437-25.035157-.886718-16.328124-40.535156-70.902343-56.191406-76.660156-6.480468-2.382812-12.933594-2.230468-19.523437-.015625-36.714844 12.347657-51.917969 42.539063-37.355469 78.289063 20.972656 51.488281 49.191406 95.867187 85.523438 132.199218zm0 0"/><path d="m251.164062 112.035156c8-1.269531 16.21875-1.554687 24.417969-.839844 25.273438 2.1875 49.320313 13.527344 67.714844 31.921876 17.84375 17.84375 28.820313 40.917968 30.90625 64.972656.710937 8.214844.367187 16.457031-1.027344 24.484375-.992187 5.710937 2.835938 11.148437 8.546875 12.140625.609375.105468 1.214844.15625 1.808594.15625 5.011719 0 9.445312-3.597656 10.332031-8.703125 1.707031-9.8125 2.128907-19.871094 1.261719-29.894531-2.511719-28.96875-15.644531-56.671876-36.976562-78.003907-21.886719-21.886719-50.5625-35.378906-80.75-38-9.902344-.855469-19.835938-.511719-29.523438 1.023438-5.726562.910156-9.632812 6.289062-8.726562 12.015625.90625 5.726562 6.28125 9.632812 12.015624 8.726562zm0 0"/><path d="m348.179688 235.644531c.449218.054688.894531.082031 1.339843.082031 5.207031 0 9.726563-3.875 10.402344-9.175781.71875-5.679687.832031-11.484375.332031-17.25-1.800781-20.777343-11.339844-40.765625-26.855468-56.28125-16.070313-16.070312-37.03125-25.972656-59.023438-27.878906-6.1875-.535156-12.402344-.414063-18.472656.359375-5.753906.734375-9.820313 5.996094-9.085938 11.746094.734375 5.753906 6.011719 9.816406 11.746094 9.085937 4.589844-.585937 9.300781-.675781 14-.269531 17.074219 1.480469 33.40625 9.222656 45.984375 21.804688 12.027344 12.027343 19.410156 27.386718 20.785156 43.246093.371094 4.285157.289063 8.585938-.242187 12.789063-.734375 5.753906 3.339844 11.007812 9.089844 11.742187zm0 0"/><path d="m314.273438 229.410156c.242187.019532.480468.027344.722656.027344 5.472656 0 10.089844-4.246094 10.464844-9.789062.164062-2.402344.140624-4.867188-.074219-7.328126-2.332031-26.90625-26.066407-49.886718-54.035157-52.308593-2.28125-.199219-4.566406-.25-6.792968-.160157-5.796875.238282-10.300782 5.128907-10.0625 10.921876.242187 5.796874 5.140625 10.292968 10.925781 10.058593 1.339844-.054687 2.726563-.019531 4.117187.101563 17.503907 1.515625 33.496094 16.722656 34.925782 33.203125.121094 1.382812.136718 2.757812.046875 4.085937-.398438 5.785156 3.972656 10.796875 9.761719 11.1875zm0 0"/><path d="m0 0v485h485v-485zm455 455h-425v-425h425zm0 0"/></svg>