<svg height="485pt" viewBox="0 0 485 485" width="485pt" xmlns="http://www.w3.org/2000/svg"><path d="m163.648438 329.988281c40.78125 0 60.277343-19.125 60.277343-19.125l-11.566406-31.382812s-18.769531 20.941406-46.914063 20.941406c-24.878906 0-42.574218-21.660156-42.574218-56.292969 0-44.394531 22.359375-60.273437 44.394531-60.273437 31.753906 0 41.855469 20.585937 50.503906 46.914062l11.546875 36.09375c11.539063 35 33.199219 63.148438 95.625 63.148438 44.742188 0 75.058594-13.714844 75.058594-49.808594 0-29.21875-16.605469-44.375-47.640625-51.582031l-23.085937-5.054688c-15.878907-3.617187-20.5625-10.101562-20.5625-20.941406 0-12.265625 9.742187-19.476562 25.625-19.476562 17.324218 0 26.699218 6.488281 28.144531 22.015624l36.070312-4.335937c-2.890625-32.476563-25.25-45.816406-62.070312-45.816406-32.460938 0-64.214844 12.261719-64.214844 51.597656 0 24.53125 11.914063 40.039063 41.855469 47.265625l24.527344 5.761719c18.402343 4.339843 24.53125 11.914062 24.53125 22.363281 0 13.359375-12.964844 18.769531-37.519532 18.769531-36.445312 0-51.601562-19.121093-60.25-45.46875l-11.914062-36.074219c-15.140625-46.910156-39.316406-64.238281-87.304688-64.238281-53.050781 0-81.191406 33.578125-81.191406 90.566407 0 54.867187 28.140625 84.433593 78.648438 84.433593zm0 0"/><path d="m0 0v485h485v-485zm455 455h-425v-425h425zm0 0"/></svg>