<svg height="485pt" viewBox="0 0 485 485" width="485pt" xmlns="http://www.w3.org/2000/svg"><path d="m242.5 318.71875c36.605469 0 66.199219-21.199219 66.199219-47.527344 0-26.222656-29.59375-47.445312-66.199219-47.445312-36.59375 0-66.28125 21.222656-66.28125 47.445312 0 26.316406 29.6875 47.578125 66.28125 47.527344zm0 0"/><path d="m242.5 379.023438c87.019531 0 157.5-48.324219 157.5-107.871094 0-59.445313-70.480469-107.714844-157.5-107.714844-38.023438 0-72.949219 9.238281-100.25 24.617188v-82.082032h-57.25v168.226563h.277344c2.308594 58.152343 71.714844 104.824219 157.222656 104.824219zm0-179.613282c55.375 0 100.261719 32.15625 100.261719 71.78125 0 39.652344-44.886719 71.898438-100.261719 71.898438-55.363281 0-100.25-32.207032-100.25-71.898438 0-39.625 44.886719-71.78125 100.25-71.78125zm0 0"/><path d="m0 0v485h485v-485zm455 455h-425v-425h425zm0 0"/></svg>